<?xml version="1.0" encoding="utf-8"?>
<!-- Generator: Adobe Illustrator 16.0.0, SVG Export Plug-In . SVG Version: 6.00 Build 0)  -->
<!DOCTYPE svg PUBLIC "-//W3C//DTD SVG 1.1//EN" "http://www.w3.org/Graphics/SVG/1.1/DTD/svg11.dtd">
<svg version="1.1" id="Capa_1" xmlns="http://www.w3.org/2000/svg" xmlns:xlink="http://www.w3.org/1999/xlink" x="0px" y="0px"
	 width="40px" height="40px" viewBox="0 0 40 40" enable-background="new 0 0 40 40" xml:space="preserve">
<rect x="3.169" y="3.17" display="none" fill="#10DBE0" width="33.661" height="33.661"/>
<g>
	<g>
		<path fill="#686868" d="M19.999,21.092c0.592,0,1.103-0.217,1.533-0.649s0.648-0.94,0.648-1.532V8.013
			c0-0.59-0.218-1.1-0.648-1.531C21.1,6.05,20.591,5.834,19.999,5.834c-0.589,0-1.1,0.216-1.531,0.648
			c-0.432,0.433-0.648,0.942-0.648,1.531v10.898c0,0.591,0.216,1.101,0.648,1.532C18.899,20.875,19.411,21.092,19.999,21.092z"/>
		<path fill="#686868" d="M31.706,15.25c-0.913-1.83-2.198-3.359-3.855-4.599c-0.478-0.363-1.018-0.505-1.618-0.425
			c-0.602,0.078-1.078,0.365-1.43,0.853c-0.363,0.475-0.501,1.011-0.418,1.606c0.086,0.597,0.367,1.076,0.844,1.439
			c1.111,0.841,1.972,1.87,2.578,3.083c0.607,1.213,0.911,2.509,0.911,3.883c0,1.18-0.229,2.306-0.689,3.379
			c-0.46,1.073-1.081,2.001-1.863,2.784c-0.786,0.784-1.713,1.405-2.786,1.866c-1.07,0.46-2.197,0.688-3.381,0.688
			c-1.179,0-2.305-0.229-3.38-0.688c-1.072-0.461-2-1.082-2.784-1.866c-0.782-0.783-1.404-1.709-1.864-2.784
			c-0.46-1.071-0.69-2.197-0.69-3.379c0-1.374,0.304-2.669,0.912-3.883c0.609-1.213,1.467-2.242,2.58-3.083
			c0.477-0.364,0.755-0.842,0.843-1.439c0.085-0.596-0.054-1.132-0.418-1.606c-0.351-0.488-0.824-0.775-1.421-0.853
			c-0.597-0.08-1.138,0.063-1.625,0.425c-1.659,1.24-2.944,2.77-3.857,4.599c-0.915,1.829-1.37,3.771-1.37,5.839
			c0,1.771,0.346,3.461,1.038,5.072c0.691,1.612,1.624,3.001,2.792,4.172c1.168,1.168,2.558,2.1,4.17,2.79
			c1.612,0.692,3.304,1.039,5.072,1.039c1.771,0,3.463-0.347,5.075-1.039c1.612-0.69,3.001-1.624,4.171-2.79
			c1.17-1.169,2.099-2.56,2.791-4.172c0.691-1.611,1.039-3.302,1.039-5.072C33.076,19.024,32.619,17.079,31.706,15.25z"/>
	</g>
</g>
</svg>
